<svg xmlns="http://www.w3.org/2000/svg" viewBox="0 0 250 250"><defs><style>.cls-1{fill:#f2f2f2;}.cls-2,.cls-6{fill:#517ad9;}.cls-3,.cls-4,.cls-5{fill:#fff;}.cls-4{font-size:34.29px;}.cls-4,.cls-5{font-family:Chivo-Bold, Chivo;font-weight:700;}.cls-5{font-size:16.38px;}.cls-6{font-size:10.74px;font-family:WorkSans-Medium, Work Sans;font-weight:500;}</style></defs><g id="Camada_2" data-name="Camada 2"><g id="BACKGROUND"><rect class="cls-1" width="250" height="250"/></g><g id="OBJECTS"><polygon class="cls-2" points="59.42 201.34 106.61 110.33 136.65 125.91 89.46 216.92 79.62 198.46 59.42 201.34"/><polygon class="cls-2" points="184.43 201.34 137.24 110.33 107.19 125.91 154.38 216.92 164.22 198.46 184.43 201.34"/><circle class="cls-3" cx="123.84" cy="115.05" r="74.69"/><path class="cls-2" d="M123.84,42.36a72.7,72.7,0,1,1-72.69,72.69,72.77,72.77,0,0,1,72.69-72.69m0-4a76.7,76.7,0,1,0,76.69,76.69,76.69,76.69,0,0,0-76.69-76.69Z"/><circle class="cls-2" cx="123.84" cy="115.05" r="44.27" transform="translate(-32.54 50.87) rotate(-20.58)"/><path class="cls-2" d="M123.84,47a68,68,0,1,1-68,68,68.09,68.09,0,0,1,68-68m0-1a69,69,0,1,0,69,69,69,69,0,0,0-69-69Z"/><path class="cls-2" d="M123.84,47a68,68,0,1,1-68,68,68.09,68.09,0,0,1,68-68m0-1a69,69,0,1,0,69,69,69,69,0,0,0-69-69Z"/><text class="cls-4" transform="translate(93.82 123.04)">ISO</text><text class="cls-5" transform="translate(104.16 139.74)">9001</text><text class="cls-6" transform="translate(87.35 75.04) rotate(-37.65)">G</text><text class="cls-6" transform="translate(95.06 69.29) rotate(-27.82)">U</text><text class="cls-6" transform="translate(103.3 65.12) rotate(-18.48)">A</text><text class="cls-6" transform="translate(111.88 62.41) rotate(-9.09)">R</text><text class="cls-6" transform="matrix(1, 0.02, -0.02, 1, 120.89, 61.08)">A</text><text class="cls-6" transform="translate(129.9 61.28) rotate(9.81)">N</text><text class="cls-6" transform="translate(139.48 63.14) rotate(19.29)">T</text><text class="cls-6" transform="matrix(0.88, 0.47, -0.47, 0.88, 147.49, 66.09)">E</text><text class="cls-6" transform="matrix(0.8, 0.6, -0.6, 0.8, 155.08, 70.34)">E</text><text class="cls-6" transform="translate(87.41 163.35) rotate(37.56)">C</text><text class="cls-6" transform="translate(95.78 169.41) rotate(27.16)">E</text><text class="cls-6" transform="translate(104.63 173.67) rotate(16.77)">R</text><text class="cls-6" transform="matrix(0.99, 0.12, -0.12, 0.99, 114.29, 176.29)">T</text><text class="cls-6" transform="matrix(1, -0.02, 0.02, 1, 123.69, 177.08)">I</text><text class="cls-6" transform="translate(129.71 176.88) rotate(-9.09)">F</text><text class="cls-6" transform="translate(138.89 175.09) rotate(-17.1)">I</text><text class="cls-6" transform="matrix(0.9, -0.43, 0.43, 0.9, 144.67, 173.24)">E</text><text class="cls-6" transform="matrix(0.81, -0.59, 0.59, 0.81, 153.46, 168.83)">D</text><polygon class="cls-2" points="62.31 115.36 65.43 113.82 65.94 110.37 68.37 112.87 71.8 112.28 70.18 115.36 71.8 118.44 68.37 117.86 65.94 120.35 65.43 116.9 62.31 115.36"/><polygon class="cls-2" points="68.53 137.31 70.67 136.25 71.01 133.89 72.68 135.6 75.03 135.2 73.92 137.31 75.03 139.41 72.68 139.01 71.01 140.72 70.67 138.36 68.53 137.31"/><polygon class="cls-2" points="68.53 94.56 70.67 93.5 71.01 91.14 72.68 92.85 75.03 92.45 73.92 94.56 75.03 96.66 72.68 96.26 71.01 97.97 70.67 95.61 68.53 94.56"/><polygon class="cls-2" points="185.18 116.5 182.05 118.04 181.55 121.49 179.12 118.99 175.68 119.58 177.31 116.5 175.68 113.42 179.12 114 181.55 111.51 182.05 114.96 185.18 116.5"/><polygon class="cls-2" points="178.95 94.56 176.81 95.61 176.47 97.97 174.81 96.26 172.46 96.66 173.57 94.56 172.46 92.45 174.81 92.85 176.47 91.14 176.81 93.5 178.95 94.56"/><polygon class="cls-2" points="178.95 137.31 176.81 138.36 176.47 140.72 174.81 139.01 172.46 139.41 173.57 137.31 172.46 135.2 174.81 135.6 176.47 133.89 176.81 136.25 178.95 137.31"/><path class="cls-3" d="M123.84,74.64a40.42,40.42,0,1,1-40.42,40.41,40.46,40.46,0,0,1,40.42-40.41m0-1a41.42,41.42,0,1,0,41.42,41.41,41.42,41.42,0,0,0-41.42-41.41Z"/></g></g></svg>